<?xml version="1.0" standalone="no"?>
<!DOCTYPE svg PUBLIC "-//W3C//DTD SVG 20010904//EN"
 "http://www.w3.org/TR/2001/REC-SVG-20010904/DTD/svg10.dtd">
<svg version="1.0" xmlns="http://www.w3.org/2000/svg"
 width="320.000000pt" height="320.000000pt" viewBox="0 0 320.000000 320.000000"
 preserveAspectRatio="xMidYMid meet">
<metadata>
Created by potrace 1.16, written by Peter Selinger 2001-2019
</metadata>
<g transform="translate(0.000000,320.000000) scale(0.100000,-0.100000)"
fill="#000000" stroke="none">
<path d="M2092 2112 c-6 -2 -12 -8 -12 -13 0 -6 4 -8 8 -5 4 2 13 -4 20 -15 9
-13 9 -19 1 -19 -14 0 -74 -50 -74 -62 0 -17 -49 -37 -91 -38 -28 0 -44 -5
-48 -15 -3 -9 0 -17 7 -19 81 -22 126 -38 142 -52 17 -13 17 -15 3 -10 -33 10
-12 -25 29 -48 12 -7 12 11 -1 32 -7 12 -4 12 14 2 12 -6 23 -10 24 -8 1 2 12
19 24 39 12 19 30 44 42 54 20 18 20 18 -11 49 -49 50 -56 75 -7 29 24 -24 52
-43 63 -43 15 0 12 7 -18 31 -21 17 -52 50 -70 73 -18 24 -38 41 -45 38z"/>
<path d="M1045 2023 c-10 -15 -30 -37 -45 -50 l-27 -22 43 -47 c24 -26 44 -51
44 -55 0 -13 27 -11 42 4 19 19 132 67 157 67 30 0 26 18 -6 26 -42 10 -83 33
-130 70 -23 19 -46 34 -51 34 -5 0 -18 -12 -27 -27z"/>
<path d="M703 1959 c2 -25 23 -35 90 -44 28 -4 50 -12 54 -21 3 -8 15 -14 28
-14 15 0 25 -8 29 -22 4 -17 8 -20 15 -10 6 10 16 4 41 -25 17 -21 27 -28 21
-15 -7 12 -8 22 -3 22 5 0 14 -11 20 -25 6 -14 16 -25 22 -25 5 0 9 -3 9 -7
-3 -19 2 -34 9 -29 4 2 9 -5 9 -16 2 -28 13 -36 23 -18 43 76 144 125 277 134
60 4 69 3 38 -4 -22 -5 -56 -9 -76 -9 -40 -1 -140 -32 -122 -38 7 -3 20 0 31
6 35 18 194 34 235 23 22 -6 37 -7 37 -1 0 5 -11 9 -24 9 -14 0 -27 4 -30 8
-3 5 8 6 25 4 16 -2 29 0 29 6 0 14 -62 24 -143 23 -106 -1 -180 -26 -245 -82
-18 -16 -38 -29 -45 -29 -7 1 -27 22 -46 47 -19 26 -37 41 -39 35 -2 -8 -13
-3 -30 14 -15 15 -49 38 -77 51 -49 24 -50 24 -15 21 19 -1 41 -10 48 -18 11
-13 12 -13 10 0 -5 25 -20 30 -108 30 -52 0 -80 4 -71 9 16 10 6 31 -14 31 -8
0 -13 -9 -12 -21z"/>
<path d="M2455 1950 c5 -8 -102 -17 -137 -11 -5 0 -8 -3 -8 -9 0 -5 14 -7 33
-4 26 5 22 1 -23 -21 -30 -14 -63 -34 -72 -42 -12 -11 -18 -12 -18 -4 0 8 -5
7 -16 -3 -8 -9 -19 -16 -22 -16 -4 0 -18 -18 -32 -40 -14 -22 -27 -40 -31 -40
-3 0 -26 15 -50 34 -72 55 -149 78 -255 78 -49 -1 -101 -5 -115 -11 l-24 -9
30 -8 30 -8 -25 -6 -25 -6 4 -514 c4 -569 3 -564 68 -621 20 -17 62 -42 94
-56 33 -14 59 -30 59 -35 0 -6 -6 -8 -13 -5 -8 3 -39 8 -69 12 -49 6 -61 4
-100 -19 -58 -34 -115 -91 -123 -123 -11 -44 3 -39 48 16 16 19 41 43 55 55
l27 20 -18 -21 c-14 -16 -15 -22 -5 -26 15 -5 35 7 58 37 14 18 13 18 -10 11
-14 -4 -22 -4 -17 0 4 5 22 9 40 11 65 4 138 17 143 25 7 11 -13 25 -86 62
-36 17 -64 35 -62 40 3 9 -35 47 -47 47 -16 0 -18 27 -20 230 0 107 -6 335
-13 506 -6 170 -8 318 -5 329 7 16 18 17 130 13 67 -3 113 -2 102 2 -11 5 -38
10 -60 11 -34 2 -36 3 -11 6 39 6 111 -14 166 -46 25 -14 49 -24 53 -23 5 1 6
-1 4 -5 -3 -5 6 -22 19 -38 18 -23 24 -26 24 -12 0 9 4 17 10 17 5 0 7 8 3 18
-3 9 -3 14 2 10 4 -4 14 0 22 10 13 15 14 14 9 -13 l-5 -30 12 27 c7 15 20 35
29 45 10 10 30 32 45 49 34 38 70 58 75 43 2 -6 19 -2 43 10 22 10 53 23 69
28 32 9 47 33 21 33 -9 0 -13 -4 -10 -10z"/>
</g>
</svg>
